<?xml version="1.0" encoding="UTF-8" standalone="no"?>
<svg width="270px" height="220px" viewBox="0 0 270 220" version="1.1" xmlns="http://www.w3.org/2000/svg" xmlns:xlink="http://www.w3.org/1999/xlink" xmlns:sketch="http://www.bohemiancoding.com/sketch/ns">
    <!-- Generator: Sketch 3.3.2 (12043) - http://www.bohemiancoding.com/sketch -->
    <title>business-class-logo-mark-blue</title>
    <desc>Created with Sketch.</desc>
    <defs>
        <rect id="path-1" x="0" y="0" width="270" height="184.516129" rx="19.1781153"></rect>
    </defs>
    <g id="Page-1" stroke="none" stroke-width="1" fill="none" fill-rule="evenodd" sketch:type="MSPage">
        <g id="Original-Assets" sketch:type="MSArtboardGroup" transform="translate(-1294.000000, -708.000000)">
            <g id="Business-Class" sketch:type="MSLayerGroup" transform="translate(480.000000, 618.000000)">
                <g id="Business-Class-Logo---Blue-Copy-3" transform="translate(730.000000, 0.000000)">
                    <g id="Logo" transform="translate(84.000000, 90.000000)">
                        <g id="Business-Class-Mark">
                            <path d="M103.278367,0 C91.3667773,0 81.7105263,9.66338128 81.7105263,21.5817108 L81.7105263,49.3860312 C81.7105263,61.3052809 91.3684714,70.9677419 103.278367,70.9677419 L166.721633,70.9677419 C178.633223,70.9677419 188.289474,61.3043607 188.289474,49.3860312 L188.289474,21.5817108 C188.289474,9.66246104 178.631529,0 166.721633,0 L103.278367,0 Z M106.66113,17.7419355 C102.691613,17.7419355 99.4736842,20.9534758 99.4736842,24.9333108 L99.4736842,46.0344312 C99.4736842,50.0061181 102.687963,53.2258065 106.66113,53.2258065 L163.33887,53.2258065 C167.308387,53.2258065 170.526316,50.0142661 170.526316,46.0344312 L170.526316,24.9333108 C170.526316,20.9616239 167.312037,17.7419355 163.33887,17.7419355 L106.66113,17.7419355 Z" id="Handle" fill="#B2BACF" sketch:type="MSShapeGroup"></path>
                            <g id="Briefcase" transform="translate(0.000000, 35.483871)">
                                <mask id="mask-2" sketch:name="Briefcase Frame" fill="white">
                                    <use xlink:href="#path-1"></use>
                                </mask>
                                <use id="Briefcase-Frame" fill="#B2BACF" sketch:type="MSShapeGroup" xlink:href="#path-1"></use>
                                <rect id="Rectangle-846" fill="#D2D7E4" sketch:type="MSShapeGroup" mask="url(#mask-2)" x="30.1973684" y="0" width="209.605263" height="184.516129"></rect>
                                <rect id="Rectangle-845" fill="#42568C" sketch:type="MSShapeGroup" mask="url(#mask-2)" x="42.6315789" y="0" width="184.736842" height="184.516129"></rect>
                                <g id="Lists" mask="url(#mask-2)" fill="#FFFFFF" sketch:type="MSShapeGroup">
                                    <g transform="translate(65.723684, 23.064516)">
                                        <rect id="Left-List" x="0" y="0" width="58.6184211" height="127.741935" rx="8.87096774"></rect>
                                        <rect id="Right-List" x="79.9342105" y="0" width="58.6184211" height="76.2903226" rx="8.87096774"></rect>
                                    </g>
                                </g>
                            </g>
                        </g>
                    </g>
                </g>
            </g>
        </g>
    </g>
</svg>